<svg width="124" height="39" viewBox="0 0 124 39" fill="none" xmlns="http://www.w3.org/2000/svg">
<path d="M34.5381 13.3174H39.8291C41.1357 13.3174 42.1934 13.7217 43.002 14.5303C43.8164 15.333 44.2236 16.3907 44.2236 17.7032C44.2236 19.0039 43.8047 20.0557 42.9668 20.8584C42.1289 21.6612 41.0391 22.0625 39.6973 22.0625H37.1924V26H34.5381V13.3174ZM37.1924 15.4971V19.9092H39.1172C39.8848 19.9092 40.4766 19.7217 40.8926 19.3467C41.3145 18.9659 41.5254 18.4209 41.5254 17.7119C41.5254 16.9971 41.3174 16.4492 40.9014 16.0684C40.4854 15.6875 39.8936 15.4971 39.126 15.4971H37.1924Z" fill="white"/>
<path d="M53.9355 26L52.9775 22.9766H48.5215L47.5459 26H44.8828L49.2861 13.3174H52.4062L56.8096 26H53.9355ZM50.6836 15.9541L49.0928 20.9287H52.415L50.8418 15.9541H50.6836Z" fill="white"/>
<path d="M61.626 26H58.9717V13.3174H61.626V26Z" fill="white"/>
<path d="M67.2422 26H64.7021V13.3174H66.917L72.7529 21.2188H72.9111V13.3174H75.4512V26H73.2539L67.4004 18.0635H67.2422V26Z" fill="white"/>
<path d="M84.2666 26H81.6123V15.585H77.8066V13.3174H88.0723V15.585H84.2666V26Z" fill="white"/>
<path d="M98.8213 23.7325V26H90.4189V13.3174H98.8213V15.585H93.0732V18.5469H98.4961V20.6475H93.0732V23.7325H98.8213Z" fill="white"/>
<path d="M104.271 15.4619V19.3643H106.6C107.268 19.3643 107.786 19.1944 108.155 18.8545C108.53 18.5088 108.718 18.0313 108.718 17.4219C108.718 16.8184 108.524 16.3409 108.138 15.9893C107.751 15.6377 107.229 15.4619 106.573 15.4619H104.271ZM104.271 21.4034V26H101.616V13.3174H106.942C108.337 13.3174 109.436 13.6807 110.238 14.4073C111.041 15.1338 111.442 16.127 111.442 17.3867C111.442 18.2071 111.237 18.9424 110.827 19.5928C110.423 20.2373 109.86 20.7032 109.14 20.9903L111.812 26H108.806L106.441 21.4034H104.271Z" fill="white"/>
<path d="M113.543 22.4756H116.109C116.168 22.9912 116.438 23.4014 116.918 23.7061C117.398 24.0108 118.014 24.1631 118.764 24.1631C119.455 24.1631 120.021 24.0137 120.46 23.7149C120.899 23.4102 121.119 23.0176 121.119 22.5371C121.119 22.1328 120.949 21.8047 120.609 21.5528C120.27 21.3008 119.71 21.0928 118.931 20.9287L117.278 20.5772C114.981 20.0967 113.833 18.8897 113.833 16.9561C113.833 15.7608 114.275 14.8028 115.16 14.0821C116.045 13.3555 117.22 12.9922 118.685 12.9922C120.079 12.9922 121.225 13.3467 122.121 14.0557C123.023 14.7647 123.495 15.6846 123.536 16.8155H121.04C120.976 16.3116 120.729 15.9073 120.302 15.6026C119.874 15.2979 119.341 15.1455 118.702 15.1455C118.034 15.1455 117.498 15.2891 117.094 15.5762C116.695 15.8633 116.496 16.2471 116.496 16.7276C116.496 17.1201 116.657 17.4366 116.979 17.6768C117.308 17.917 117.844 18.1162 118.588 18.2744L120.117 18.5996C121.389 18.8692 122.314 19.291 122.895 19.8653C123.475 20.4395 123.765 21.2188 123.765 22.2032C123.765 23.4805 123.305 24.4883 122.385 25.2266C121.471 25.959 120.217 26.3252 118.623 26.3252C117.111 26.3252 115.898 25.9795 114.984 25.2881C114.07 24.5967 113.59 23.6592 113.543 22.4756Z" fill="white"/>
<path d="M15.6827 37.3868C16.8159 37.3867 17.8812 36.9455 18.6825 36.1443C19.4837 35.343 19.925 34.2776 19.925 33.1445C19.925 33.0008 19.9177 32.8558 19.9033 32.7135L19.0498 24.2754L22.7865 20.5387C23.6767 19.6484 24.167 18.4648 24.167 17.2058L24.1671 16.2629L13.7972 12.492L13.7972 35.5013L15.6827 37.3868Z" fill="#6366F1"/>
<path d="M7.19835 2.12117L7.19839 12.492C7.19844 12.492 7.19835 2.12117 7.19835 2.12117Z" fill="black"/>
<path d="M15.6827 12.492L7.19828 16.2629V17.2057C7.19824 18.4647 7.68855 19.6484 8.57883 20.5387L12.3156 24.2755L11.4622 32.7138C11.4478 32.8563 11.4404 33.0013 11.4405 33.1445C11.4405 34.2776 11.8818 35.343 12.683 36.1443C13.4843 36.9455 14.5496 37.3868 15.6827 37.3868L15.6827 12.492Z" fill="#4F46E5"/>
<path d="M24.1672 12.4919L11.9118 8.72104L15.6828 16.2629L24.1672 16.2629L24.1673 12.4919L24.1672 12.4919Z" fill="#E0E7FF"/>
<path d="M15.6827 8.72101L7.19826 12.4919L7.19821 16.2629L15.6827 16.2629V8.72101Z" fill="#C7D2FE"/>
<path d="M11.4406 12.492L14.2688 7.30657L11.4405 2.12117H7.1983L7.19839 12.492H11.4406Z" fill="#FF7169"/>
<path d="M15.6828 12.4919L18.5109 7.30655L15.6827 2.12111L11.4404 2.12115L11.4405 12.4919L15.6828 12.4919Z" fill="#FF9259"/>
<path d="M19.9252 12.4919L22.7534 7.30655L19.9252 2.12115L15.6829 2.12115L15.683 12.4919L19.9252 12.4919Z" fill="#FFB24A"/>
<path d="M24.1697 2.12106V12.4903H19.928V2.12106H24.1697Z" fill="#FFD23B"/>
</svg>
